<svg xmlns="http://www.w3.org/2000/svg" xmlns:xlink="http://www.w3.org/1999/xlink" viewBox="0 0 334.11 94.26"><defs><style>.cls-1{fill:#fff;}.cls-2{fill:#00ff0c;}.cls-3{fill:#004757;}.cls-4{fill:url(#linear-gradient);}</style><linearGradient id="linear-gradient" x1="68.22" y1="-4.79" x2="-15.3" y2="78.73" gradientUnits="userSpaceOnUse"><stop offset="0.13" stop-color="#00c300"/><stop offset="1" stop-color="#00c300" stop-opacity="0.3"/></linearGradient></defs><g id="Layer_2" data-name="Layer 2"><g id="Layer_1-2" data-name="Layer 1"><path class="cls-1" d="M130.42,3.59l12.69,19.59L155.79,3.59H162v39h-6.68V16.39L143.11,34.92,130.92,16.39V42.54h-6.67V3.59Z"/><path class="cls-1" d="M171,3.59h6.68v39H171Z"/><path class="cls-1" d="M186.67,3.59h6.68V36.2h16.58v6.34H186.67Z"/><path class="cls-1" d="M214.49,3.59h6.68V36.2h16.58v6.34H214.49Z"/><path class="cls-1" d="M243.09,3.59h6.67v39h-6.67Z"/><path class="cls-1" d="M295.94,23.06c0,11.52-8.34,20.15-19.69,20.15s-19.7-8.63-19.7-20.15,8.35-20.14,19.7-20.14S295.94,11.55,295.94,23.06Zm-6.78,0c0-7.51-5.07-13.79-12.91-13.79s-12.91,6.28-12.91,13.79,5.06,13.8,12.91,13.8S289.16,30.58,289.16,23.06Z"/><path class="cls-1" d="M308,3.59l19.48,26.82V3.59h6.67v39h-6L308.63,15.78V42.54H302V3.59Z"/><path class="cls-1" d="M156.07,74.07c0,11.23-7.9,19.47-19.25,19.47H124.25V54.59h12.57C148.17,54.59,156.07,62.83,156.07,74.07Zm-6.79,0c0-7.13-4.78-13.13-12.35-13.13h-6V87.2h6C144.5,87.2,149.28,81.13,149.28,74.07Z"/><path class="cls-1" d="M199.25,74.07c0,11.51-8.35,20.14-19.7,20.14s-19.7-8.63-19.7-20.14,8.35-20.14,19.7-20.14S199.25,62.55,199.25,74.07Zm-6.79,0c0-7.52-5.07-13.8-12.91-13.8s-12.91,6.28-12.91,13.8,5.06,13.79,12.91,13.79S192.46,81.58,192.46,74.07Z"/><path class="cls-1" d="M211.54,60.94H200.8V54.59H229v6.35H218.22v32.6h-6.68Z"/><path class="cls-1" d="M246.2,77.29c-5.73-2-12.18-5.12-12.18-12.35,0-5.51,4.9-11,12.74-11a16.77,16.77,0,0,1,12.69,6.17l-4.62,4.56s-3.23-4.39-8.07-4.39c-3.34,0-5.95,2.06-5.95,4.67,0,3.4,3.06,4.45,8.4,6.46,5.95,2.22,10.9,4.89,10.9,12s-6.23,10.85-13.57,10.85a17,17,0,0,1-14.25-8l5-4.23s3.34,5.84,9.24,5.84c3.34,0,6.79-1.33,6.79-4.5S250.82,78.91,246.2,77.29Z"/><circle class="cls-2" cx="271.4" cy="89.19" r="5.07"/><polygon class="cls-3" points="72.86 60.17 72.86 94.03 98.28 94.03 98.28 34.78 72.86 60.17"/><path class="cls-4" d="M76.69,3.69,49.14,31.24,25.43,7.52h0L21.64,3.74A12.67,12.67,0,0,0,0,12.7V94H25.43V43.49L49.14,67.21C59.76,56.58,83.85,32.49,94.68,21.67Z"/><circle class="cls-2" cx="85.57" cy="12.8" r="12.71"/></g></g></svg>